<svg xmlns="http://www.w3.org/2000/svg" width="481pt" height="291pt" viewBox="0 0 481 291" version="1.1" xmlns:xlink="http://www.w3.org/1999/xlink">
  <g id="surface2" transform="matrix(1,0,0,1,0,-2)" data-tpl_matrix="1,0,0,1,0,-2">
    <path style="stroke:none;fill-rule:evenodd;fill:rgb(53.333333%,76.078431%,25.098039%);fill-opacity:1" d="M 284.5 81 L 284.5 117.75 L 290.5 117.75 L 290.5 75 L 247.75 75 L 247.75 81 L 284.5 81"/>
    <path style="stroke:none;fill-rule:evenodd;fill:rgb(90.196078%,36.470588%,14.509804%);fill-opacity:1" d="M 197.5 81 L 234.25 81 L 234.25 75 L 191.5 75 L 191.5 117.75 L 197.5 117.75 L 197.5 81"/>
    <path style="stroke:none;fill-rule:evenodd;fill:rgb(27.450980%,76.470588%,90.196078%);fill-opacity:1" d="M 284.5 168 L 247.75 168 L 247.75 174 L 290.5 174 L 290.5 131.25 L 284.5 131.25 L 284.5 168"/>
    <path style="stroke:none;fill-rule:evenodd;fill:rgb(41.568627%,78.039216%,70.196078%);fill-opacity:1" d="M 197.5 168 L 197.5 131.25 L 191.5 131.25 L 191.5 174 L 234.25 174 L 234.25 168 L 197.5 168"/>
    <path style="stroke:none;fill-rule:evenodd;fill:rgb(98.431373%,69.803922%,9.019608%);fill-opacity:1" d="M32.200195-8.127930L32.200195 0L3.766602 0L3.766602-40.611328L11.894531-40.611328L11.894531-8.127930L32.200195-8.127930Z" transform="matrix(1,0,0,1,223,144.5)" data-str-tmatrix="1,0,0,1,223.5,143.5" data-str-color="rgb(251,178,23)" data-str-text="L" data-str-default_text="Enter Text" data-str-fontsize="58" data-str-font_family="Righteous" data-str-hastextedit="true" data-str-fonticons="true" data-str-bold="false" data-str-italic="false" data-str-data="" data-str-letter_spacing="0" data-str-use_path="false" data-str-txt_dy="0" data-lyt_name="init_1"/>
  </g>
  <g id="surface4">
    <text style="fill:rgb(250,175,24)" font-family="Righteous" font-size="47" transform="matrix(1,0,0,1,166,228)" xml:space="preserve"><![CDATA[Leeroo]]></text>
  </g>
</svg>